grf
version=1
nRows=59
nColumns=19
inDegrees=yes
endheader
time	ground_force_1_vx	ground_force_1_vy	ground_force_1_vz	ground_force_1_px	ground_force_1_py	ground_force_1_pz	ground_moment_1_mx	ground_moment_1_my	ground_moment_1_mz	ground_force_2_vx	ground_force_2_vy	ground_force_2_vz	ground_force_2_px	ground_force_2_py	ground_force_2_pz	ground_moment_2_mx	ground_moment_2_my	ground_moment_2_mz
3.512000	7.842096	487.558258	-32.867677	0.102366	0.000000	-1.047317	0.000000	2.691101	0.000000	-39.765524	406.440766	29.714388	0.257457	0.000000	-1.406645	-0.000000	-3.070993	-0.000000
3.513000	7.900620	488.002432	-32.932444	0.096902	0.000000	-1.060309	0.000000	2.662792	0.000000	-39.993671	406.289196	29.707286	0.253594	0.000000	-1.402754	-0.000000	-3.088373	-0.000000
3.514000	7.955844	488.442901	-32.988361	0.102946	0.000000	-1.047922	0.000000	2.634207	0.000000	-40.219795	406.109702	29.699731	0.252071	0.000000	-1.410428	-0.000000	-3.105387	-0.000000
3.515000	8.008360	488.875665	-33.034409	0.101374	0.000000	-1.046859	0.000000	2.605320	0.000000	-40.443033	405.902616	29.690464	0.256604	0.000000	-1.399453	-0.000000	-3.122204	-0.000000
3.516000	8.058841	489.296511	-33.069495	0.101302	0.000000	-1.049620	0.000000	2.576077	0.000000	-40.662595	405.668523	29.678191	0.255516	0.000000	-1.401379	-0.000000	-3.139030	-0.000000
3.517000	8.107995	489.702005	-33.092697	0.104066	0.000000	-1.046375	0.000000	2.546429	0.000000	-40.877627	405.407773	29.661727	0.256897	0.000000	-1.402881	-0.000000	-3.156067	-0.000000
3.518000	8.156553	490.089969	-33.103452	0.101064	0.000000	-1.050412	0.000000	2.516370	0.000000	-41.087177	405.120232	29.640095	0.258046	0.000000	-1.400443	-0.000000	-3.173484	-0.000000
3.519000	8.205289	490.459463	-33.101491	0.099973	0.000000	-1.049834	0.000000	2.485941	0.000000	-41.290336	404.805198	29.612509	0.257387	0.000000	-1.401638	-0.000000	-3.191408	-0.000000
3.520000	8.255051	490.810465	-33.086716	0.101108	0.000000	-1.048698	0.000000	2.455198	0.000000	-41.486339	404.461425	29.578295	0.259022	0.000000	-1.402175	-0.000000	-3.209929	-0.000000
3.521000	8.306736	491.143344	-33.059187	0.096015	0.000000	-1.049152	0.000000	2.424210	0.000000	-41.674578	404.087535	29.536872	0.259466	0.000000	-1.405259	-0.000000	-3.229110	-0.000000
3.522000	8.361239	491.458239	-33.019147	0.101583	0.000000	-1.049838	0.000000	2.393061	0.000000	-41.854566	403.682547	29.487759	0.257865	0.000000	-1.404005	-0.000000	-3.249003	-0.000000
3.523000	8.419439	491.754731	-32.967020	0.098959	0.000000	-1.050247	0.000000	2.361857	0.000000	-42.025883	403.246160	29.430601	0.259943	0.000000	-1.403681	-0.000000	-3.269655	-0.000000
3.524000	8.482212	492.031971	-32.903394	0.099138	0.000000	-1.051194	0.000000	2.330720	0.000000	-42.188150	402.778867	29.365240	0.259277	0.000000	-1.404311	-0.000000	-3.291114	-0.000000
3.525000	8.550408	492.288630	-32.828920	0.099118	0.000000	-1.050811	0.000000	2.299767	0.000000	-42.341067	402.282025	29.291763	0.259821	0.000000	-1.401224	-0.000000	-3.313423	-0.000000
3.526000	8.624713	492.522780	-32.744234	0.098937	0.000000	-1.051182	0.000000	2.269076	0.000000	-42.484473	401.757807	29.210451	0.262052	0.000000	-1.400526	-0.000000	-3.336612	-0.000000
3.527000	8.705539	492.732329	-32.650012	0.098913	0.000000	-1.049777	0.000000	2.238666	0.000000	-42.618339	401.208946	29.121725	0.263095	0.000000	-1.403195	-0.000000	-3.360692	-0.000000
3.528000	8.793101	492.915667	-32.547042	0.101805	0.000000	-1.046496	0.000000	2.208522	0.000000	-42.742718	400.638343	29.026140	0.265847	0.000000	-1.402911	-0.000000	-3.385662	-0.000000
3.529000	8.887584	493.072149	-32.436204	0.098438	0.000000	-1.051660	0.000000	2.178629	0.000000	-42.857735	400.048428	28.924383	0.263151	0.000000	-1.397945	-0.000000	-3.411524	-0.000000
3.530000	8.989218	493.202158	-32.318372	0.098250	0.000000	-1.048969	0.000000	2.148972	0.000000	-42.963619	399.440545	28.817229	0.263934	0.000000	-1.400765	-0.000000	-3.438270	-0.000000
3.531000	9.098244	493.306592	-32.194310	0.096486	0.000000	-1.053431	0.000000	2.119520	0.000000	-43.060689	398.814889	28.705536	0.263069	0.000000	-1.399187	-0.000000	-3.465868	-0.000000
3.532000	9.214843	493.386124	-32.064602	0.095178	0.000000	-1.050640	0.000000	2.090218	0.000000	-43.149317	398.171063	28.590245	0.262715	0.000000	-1.403613	-0.000000	-3.494264	-0.000000
3.533000	9.339105	493.440600	-31.929687	0.097124	0.000000	-1.049710	0.000000	2.061010	0.000000	-43.229944	397.508930	28.472330	0.265330	0.000000	-1.399206	-0.000000	-3.523406	-0.000000
3.534000	9.471024	493.469145	-31.789968	0.098698	0.000000	-1.047906	0.000000	2.031849	0.000000	-43.303115	396.829306	28.352767	0.263192	0.000000	-1.399952	-0.000000	-3.553237	-0.000000
3.535000	9.610511	493.470997	-31.645877	0.097069	0.000000	-1.049276	0.000000	2.002700	0.000000	-43.369457	396.134112	28.232528	0.264689	0.000000	-1.405615	-0.000000	-3.583684	-0.000000
3.536000	9.757391	493.446088	-31.497868	0.097349	0.000000	-1.052571	0.000000	1.973531	0.000000	-43.429617	395.426078	28.112507	0.265319	0.000000	-1.389317	0.000000	-3.614665	-0.000000
3.537000	9.911414	493.394875	-31.346394	0.095674	0.000000	-1.051706	0.000000	1.944308	0.000000	-43.484283	394.708121	27.993457	0.265662	0.000000	-1.395023	0.000000	-3.646081	-0.000000
3.538000	10.072272	493.317870	-31.191958	0.094563	0.000000	-1.056704	0.000000	1.915012	0.000000	-43.534232	393.982601	27.875981	0.264880	0.000000	-1.399233	0.000000	-3.677775	-0.000000
3.539000	10.239570	493.215061	-31.035184	0.093748	0.000000	-1.054182	0.000000	1.885651	0.000000	-43.580315	393.251264	27.760577	0.265736	0.000000	-1.401320	0.000000	-3.709541	-0.000000
3.540000	10.412816	493.085515	-30.876836	0.097116	0.000000	-1.046715	0.000000	1.856256	0.000000	-43.623369	392.516014	27.647670	0.264039	0.000000	-1.396222	0.000000	-3.741176	-0.000000
3.541000	10.591607	492.927790	-30.717761	0.095796	0.000000	-1.049210	0.000000	1.826856	0.000000	-43.664168	391.779459	27.537641	0.267034	0.000000	-1.390592	0.000000	-3.772510	-0.000000
3.542000	10.775812	492.741042	-30.558749	0.098960	0.000000	-1.049144	-0.000000	1.797446	0.000000	-43.703412	391.044326	27.430872	0.268103	0.000000	-1.395342	0.000000	-3.803377	-0.000000
3.543000	10.965611	492.525923	-30.400437	0.095245	0.000000	-1.050076	-0.000000	1.767971	0.000000	-43.741726	390.312379	27.327742	0.269706	0.000000	-1.398284	0.000000	-3.833594	-0.000000
3.544000	11.161411	492.284639	-30.243348	0.093506	0.000000	-1.054406	-0.000000	1.738327	0.000000	-43.779670	389.584199	27.228562	0.267419	0.000000	-1.399249	0.000000	-3.862964	-0.000000
3.545000	11.363719	492.020171	-30.087954	0.092389	0.000000	-1.054120	-0.000000	1.708396	0.000000	-43.817742	388.859830	27.133490	0.266769	0.000000	-1.391969	0.000000	-3.891290	-0.000000
3.546000	11.573035	491.735379	-29.934709	0.092940	0.000000	-1.054920	-0.000000	1.678066	0.000000	-43.856385	388.139174	27.042509	0.269760	0.000000	-1.396456	0.000000	-3.918388	-0.000000
3.547000	11.789864	491.432734	-29.784061	0.096334	0.000000	-1.049715	-0.000000	1.647248	0.000000	-43.896005	387.421678	26.955487	0.268802	0.000000	-1.395602	0.000000	-3.944072	-0.000000
3.548000	12.014744	491.114640	-29.636423	0.085306	0.000000	-1.059288	-0.000000	1.615876	0.000000	-43.936972	386.705849	26.872306	0.274124	0.000000	-1.397041	0.000000	-3.968159	-0.000000
3.549000	12.248162	490.783340	-29.492142	0.093810	0.000000	-1.054060	-0.000000	1.583903	0.000000	-43.979597	385.989007	26.793039	0.270208	0.000000	-1.395754	0.000000	-3.990483	-0.000000
3.550000	12.490419	490.440384	-29.351472	0.092123	0.000000	-1.049884	-0.000000	1.551294	0.000000	-44.024071	385.267622	26.718005	0.269344	0.000000	-1.399185	0.000000	-4.010889	-0.000000
3.551000	12.741583	490.086778	-29.214587	0.094181	0.000000	-1.050376	-0.000000	1.518009	0.000000	-44.070370	384.538125	26.647607	0.267952	0.000000	-1.399771	0.000000	-4.029257	-0.000000
3.552000	13.001560	489.723674	-29.081612	0.092107	0.000000	-1.054474	-0.000000	1.484002	0.000000	-44.118150	383.797625	26.582118	0.271451	0.000000	-1.402550	0.000000	-4.045526	-0.000000
3.553000	13.270234	489.352403	-28.952615	0.091699	0.000000	-1.054043	-0.000000	1.449249	0.000000	-44.166794	383.044402	26.521603	0.271129	0.000000	-1.395902	0.000000	-4.059700	-0.000000
3.554000	13.547559	488.973874	-28.827543	0.089314	0.000000	-1.054276	-0.000000	1.413766	0.000000	-44.215599	382.278157	26.465978	0.266766	0.000000	-1.394552	0.000000	-4.071822	-0.000000
3.555000	13.833474	488.588186	-28.706203	0.090273	0.000000	-1.057497	-0.000000	1.377579	0.000000	-44.263919	381.499790	26.415098	0.270979	0.000000	-1.392312	0.000000	-4.081950	-0.000000
3.556000	14.127778	488.194589	-28.588333	0.088342	0.000000	-1.055696	-0.000000	1.340693	0.000000	-44.311187	380.710890	26.368825	0.268318	0.000000	-1.398099	0.000000	-4.090134	-0.000000
3.557000	14.430151	487.791584	-28.473658	0.094504	0.000000	-1.050124	-0.000000	1.303104	0.000000	-44.356922	379.913370	26.327041	0.271031	0.000000	-1.396323	0.000000	-4.096392	-0.000000
3.558000	14.740199	487.377655	-28.361894	0.090035	0.000000	-1.054626	-0.000000	1.264820	0.000000	-44.400682	379.109384	26.289661	0.271480	0.000000	-1.396992	0.000000	-4.100720	-0.000000
3.559000	15.057460	486.952377	-28.252762	0.088843	0.000000	-1.052316	-0.000000	1.225867	0.000000	-44.441990	378.301368	26.256620	0.271321	0.000000	-1.399609	0.000000	-4.103124	-0.000000
3.560000	15.381398	486.516651	-28.145991	0.090706	0.000000	-1.053959	-0.000000	1.186297	0.000000	-44.480291	377.492136	26.227860	0.272003	0.000000	-1.395242	0.000000	-4.103639	-0.000000
3.561000	15.711432	486.071916	-28.041291	0.089053	0.000000	-1.058907	-0.000000	1.146180	0.000000	-44.514983	376.684894	26.203299	0.272010	0.000000	-1.396556	0.000000	-4.102337	-0.000000
3.562000	16.046930	485.619224	-27.938362	0.088016	0.000000	-1.052846	-0.000000	1.105604	0.000000	-44.545478	375.882851	26.182787	0.273074	0.000000	-1.398902	0.000000	-4.099337	-0.000000
3.563000	16.387158	485.158638	-27.836972	0.088931	0.000000	-1.055582	-0.000000	1.064683	0.000000	-44.571234	375.088659	26.166051	0.271530	0.000000	-1.397319	0.000000	-4.094810	-0.000000
3.564000	16.731243	484.689385	-27.736997	0.088063	0.000000	-1.054106	-0.000000	1.023548	0.000000	-44.591716	374.304493	26.152686	0.275177	0.000000	-1.399556	0.000000	-4.088962	-0.000000
3.565000	17.078186	484.210760	-27.638501	0.089907	0.000000	-1.053360	-0.000000	0.982327	0.000000	-44.606431	373.532803	26.142222	0.273541	0.000000	-1.392543	0.000000	-4.082007	-0.000000
3.566000	17.426962	483.722680	-27.541858	0.089816	0.000000	-1.053182	-0.000000	0.941131	0.000000	-44.615024	372.776669	26.134241	0.275175	0.000000	-1.399284	0.000000	-4.074132	-0.000000
3.567000	17.776629	483.225498	-27.447677	0.089680	0.000000	-1.052411	0.000000	0.900052	0.000000	-44.617270	372.039431	26.128441	0.274122	0.000000	-1.394270	0.000000	-4.065504	-0.000000
3.568000	18.126361	482.719987	-27.356537	0.088175	0.000000	-1.056016	0.000000	0.859151	0.000000	-44.612966	371.324377	26.124633	0.272389	0.000000	-1.394263	0.000000	-4.056307	-0.000000
3.569000	18.475384	482.207402	-27.268846	0.086656	0.000000	-1.056300	0.000000	0.818452	0.000000	-44.601855	370.634530	26.122675	0.276438	0.000000	-1.390773	0.000000	-4.046749	-0.000000
3.570000	18.822942	481.689191	-27.184897	0.088118	0.000000	-1.053848	0.000000	0.777957	0.000000	-44.583596	369.972203	26.122416	0.272854	0.000000	-1.389846	0.000000	-4.037045	-0.000000
